<?xml version="1.0" encoding="UTF-8"?>
<svg width="71px" height="106px" viewBox="0 0 71 106" version="1.1" xmlns="http://www.w3.org/2000/svg" xmlns:xlink="http://www.w3.org/1999/xlink">
    <!-- Generator: Sketch 48.2 (47327) - http://www.bohemiancoding.com/sketch -->
    <title>grill</title>
    <desc>Created with Sketch.</desc>
    <defs>
        <path d="M24.9,12.4987495 C24.5,12.8987495 24.6,13.4987495 25,13.8987495 C25.4,14.2987495 26,14.1987495 26.4,13.7987495 C26.5,13.6987495 28.7,11.1987495 27.1,8.19874954 C26.1,6.29874954 27,4.79874954 27.1,4.69874954 C27.4,4.29874954 27.3,3.69874954 26.8,3.39874954 C26.4,3.09874954 25.8,3.19874954 25.5,3.69874954 C25.4,3.79874954 23.9,6.19874954 25.5,9.09874954 C26.3,10.8987495 25,12.4987495 24.9,12.4987495 Z" id="path-1"></path>
        <filter x="-131.8%" y="-18.3%" width="363.5%" height="173.2%" filterUnits="objectBoundingBox" id="filter-2">
            <feGaussianBlur stdDeviation="0 0" in="SourceGraphic"></feGaussianBlur>
        </filter>
        <filter x="-230.6%" y="-45.8%" width="561.2%" height="228.2%" filterUnits="objectBoundingBox" id="filter-3">
            <feOffset dx="0" dy="2" in="SourceAlpha" result="shadowOffsetOuter1"></feOffset>
            <feGaussianBlur stdDeviation="2" in="shadowOffsetOuter1" result="shadowBlurOuter1"></feGaussianBlur>
            <feColorMatrix values="0 0 0 0 0.840295493   0 0 0 0 0.833780418   0 0 0 0 0.833780418  0 0 0 0.5 0" type="matrix" in="shadowBlurOuter1"></feColorMatrix>
        </filter>
    </defs>
    <g id="Page-1" stroke="none" stroke-width="1" fill="none" fill-rule="evenodd">
        <g id="grill">
            <g id="Group-2">
                <g id="wds-grill" transform="translate(21.000000, 0.000000)" fill-rule="nonzero">
                    <g id="Group">
                        <path d="M6.56167966,86.8 L8.36167966,87.5 L3.96167966,105.3 C3.76167966,105.8 3.26167966,106.1 2.76167966,106 C2.26167966,105.8 1.96167966,105.3 2.06167966,104.8 L6.56167966,86.8 Z M13,90.7999992 L15,90.7999992 L15,102.999999 C15,103.599999 14.5,103.999999 14,103.999999 C13.4,103.999999 13,103.499999 13,102.999999 L13,90.7999992 Z M19.7999992,87.6 L21.5999992,86.8 L26.0999992,104.8 C26.1999992,105.3 25.8999992,105.9 25.3999992,106 C24.7999992,106.1 24.2999992,105.8 24.1999992,105.3 L19.7999992,87.6 Z" id="Shape" fill="#332E2E"></path>
                        <g id="Shape" filter="url(#filter-2)">
                            <use fill="black" fill-opacity="1" filter="url(#filter-3)" xlink:href="#path-1"></use>
                            <use fill="#323232" fill-rule="evenodd" xlink:href="#path-1"></use>
                        </g>
                        <path d="M16.8,9.39874878 C16.4,9.79874878 16.5,10.3987488 16.9,10.7987488 C17.3,11.1987488 17.9,11.0987488 18.3,10.6987488 C18.4,10.4987488 20.5,7.99874878 19,4.99874878 C18,3.09874878 18.9,1.59874878 19,1.49874878 C19.3,1.09874878 19.2,0.498748779 18.7,0.198748779 C18.2,-0.101251221 17.7,-0.0012512207 17.4,0.498748779 C17.3,0.598748779 15.8,2.99874878 17.4,5.89874878 C18.2,7.69874878 16.9,9.29874878 16.8,9.39874878 Z" id="Shape" fill="#323232"></path>
                        <path d="M8.7,9.39875107 C8.3,9.79875107 8.4,10.3987511 8.8,10.7987511 C9.2,11.1987511 9.8,11.0987511 10.2,10.6987511 C10.3,10.5987511 12.5,8.09875107 10.9,5.09875107 C9.9,3.19875107 10.8,1.69875107 10.9,1.59875107 C11.2,1.19875107 11.1,0.598751068 10.6,0.298751068 C10.2,-0.00124893188 9.6,0.0987510681 9.3,0.598751068 C9.2,0.698751068 7.7,3.09875107 9.3,5.99875107 C10.1,7.69875107 8.8,9.29875107 8.7,9.39875107 Z" id="Shape" fill="#323232"></path>
                    </g>
                </g>
                <g id="grilltop" transform="translate(35.500000, 85.500000) rotate(90.000000) translate(-35.500000, -85.500000) translate(29.000000, 50.000000)" fill="#323232" fill-rule="nonzero">
                    <g id="Group" transform="translate(0.000000, 0.000000)">
                        <g id="bracket">
                            <g id="a-link">
                                <g id="a">
                                    <path d="M4.095,7.93271605 C4.44166667,8.45864198 4.615,9.74423868 4.615,11.7895062 L4.6475,27.0851852 C4.6475,29.0720165 4.82083333,30.7374486 5.1675,32.0814815 C5.51416667,33.2502058 6.16416667,34.5065844 7.1175,35.8506173 C6.18583333,36.9024691 5.54666667,38.0565844 5.2,39.312963 C4.83166667,40.4816872 4.6475,42.2055556 4.6475,44.4845679 L4.6475,58.3339506 C4.6475,61.0512346 4.485,62.7458848 4.16,63.4179012 C3.81333333,64.1483539 3.00083333,64.5135802 1.7225,64.5135802 L0.325,64.5135802 L0.325,70.6055556 C0.541666667,70.8393004 0.834166667,70.9561728 1.2025,70.9561728 L2.34,71 C7.15,71 9.555,67.187037 9.555,59.5611111 L9.555,45.054321 C9.555,41.9279835 10.3675,40.145679 11.9925,39.7074074 L12.675,39.2253086 L12.675,32.8703704 L12.415,32.782716 C12.3283333,32.7534979 12.2633333,32.7242798 12.22,32.6950617 C12.1116667,32.6658436 12.0358333,32.6366255 11.9925,32.6074074 C11.0608333,32.3152263 10.4216667,31.7454733 10.075,30.8981481 C9.72833333,30.1092593 9.555,28.7798354 9.555,26.9098765 L9.555,13.2358025 C9.555,8.94074074 8.95916667,5.79979424 7.7675,3.81296296 C6.57583333,1.79691358 4.69083333,0.818106996 2.1125,0.87654321 L0.325,0.87654321 L0.325,7.01234568 L1.7225,7.01234568 C2.9575,7.01234568 3.74833333,7.3191358 4.095,7.93271605 Z" id="Shape"></path>
                                </g>
                            </g>
                        </g>
                    </g>
                </g>
                <path d="M21.2546398,12.26875 C20.8546398,12.66875 20.9546398,13.26875 21.3546398,13.66875 C21.7546398,14.06875 22.3546398,13.96875 22.7546398,13.56875 C22.8546398,13.46875 25.0546398,10.96875 23.4546398,7.96875 C22.4546398,6.06875 23.3546398,4.56875 23.4546398,4.46875 C23.7546398,4.06875 23.6546398,3.46875 23.1546398,3.16875 C22.7546398,2.86875 22.1546398,2.96875 21.8546398,3.46875 C21.7546398,3.56875 20.2546398,5.96875 21.8546398,8.86875 C22.6546398,10.66875 21.3546398,12.26875 21.2546398,12.26875 Z" id="Shape" fill="#332E2E" fill-rule="nonzero"></path>
            </g>
        </g>
    </g>
</svg>