<?xml version="1.0" encoding="utf-8"?>
<!-- Generator: Adobe Illustrator 21.1.0, SVG Export Plug-In . SVG Version: 6.00 Build 0)  -->
<svg version="1.1" id="Layer_1" xmlns="http://www.w3.org/2000/svg" xmlns:xlink="http://www.w3.org/1999/xlink" x="0px" y="0px"
	 viewBox="0 0 864 864" style="enable-background:new 0 0 864 864;" xml:space="preserve" opacity="0.15">
<path d="M92.6,444.6c0.1-0.4,0.3-0.7,0.4-1.1c1.2-3.8,3-5,7-4.4c26.2,3.4,52.5,6.9,78.7,10.4c4.3,0.6,8.6,1.2,12.9,1.6
	c1.2,0.1,2.5,0,3.7-0.4c2.6-0.8,5.2-1.8,7.7-2.8c0.9-0.4,1.7-1,2.5-1.4c-1.1-1.8-2-3.5-3-5.2c-0.5-1-0.2-1.5,0.7-2.1
	c9.5-5.3,19-10.6,28.6-15.9c3.1-1.7,6.4-3.2,9.4-5c8.5-4.8,16.9-9.8,25.4-14.7c1.1-0.7,2.2-1.4,3.4-1.9c3-1.4,5.2-3.5,6.7-6.5
	c0.9-1.8,2.3-3,4.6-2.9c1.3,0,2-0.9,2.2-2.1c0.3-1.8,1.3-2.9,2.9-3.7c1.2-0.6,2.4-1.6,3.3-2.6c6.8-8.4,13.7-16.8,20.2-25.5
	c7.7-10.1,15.1-20.5,22.6-30.7c2.4-3.2,2.9-6.7,2.3-10.6c-0.7-4.7-3.6-7.3-8.3-7.3c-2.7,0-5.3,0.5-8,0.7c-1.1,0.1-2.2,0.3-3.3,0.4
	c-3.3,0.2-5.1-1.6-4.8-4.9c0.2-1.8,0-3.3-0.8-4.9c-0.3-0.6-0.2-1.4-0.2-2.2c0-0.2,0.1-0.5,0-0.6c-1.4-1.3-0.6-2.7-0.2-4.1
	c0.5-1.9,0.2-2.6-1.7-3.2c-1.2-0.4-2.4-0.7-3.6-1.2c-1-0.4-1.3-1.1-0.8-2.1c0.3-0.6,0.7-1.2,1.1-1.8c1.7-2.4,3.4-4.8,5.1-7.2
	c1-1.4,1.2-2.9,0.4-4.5c-0.7-1.6-0.8-3.1,0.1-4.7c1-1.9,1.7-3.9,2.6-5.9c0.4-0.9,0.2-1.4-0.7-1.8c-5.5-2.3-11.1-4.5-16.6-6.9
	c-4.2-1.9-8.2-4.2-12.2-6.4c-3.6-2-7.1-4.1-10.5-6.3c-2.9-1.9-5-4.6-6.5-7.7c-1.1-1.5,0.6-3.4,2.1-2.4c1.6,1.2,3.6,1.6,5.3,2.5
	c11.9,6.1,24.4,9.8,37.9,9.2c0.4,0,0.8-0.1,1.1-0.1c3.4-0.1,5.8-1.4,8.4-3.8c5.2-4.8,10.9-9.2,16.6-13.3c8.9-6.4,16.9-13.8,24.1-22
	c1-1.1,1.9-2.4,2.8-3.6c1.7-2.1,3.8-3.3,6.5-3.2c10.6,0.2,20.8,1.9,30.4,6.6c4.4,2.1,7.4,5.3,8.8,10c1.8,6,3.5,12,5.3,18
	c0.3,0.9,0.4,1.9,0.5,2.9c0,0.4-0.2,1.1-0.5,1.3c-0.3,0.2-1,0-1.3-0.3c-1.5-1.5-3.2-3-4.4-4.8c-2.5-3.8-4.8-7.7-7.1-11.7
	c-0.7-1.2-1.5-1.5-2.8-1.2c-4.2,0.9-8.4,1.7-12.6,2.5c-3.3,0.6-5.5,2.3-7.2,5.1c-3.1,5.3-4.5,11.1-5.2,17
	c-0.6,5.3-1.1,10.6-1.6,15.9c-0.1,0.6,0.2,1.5,0.6,1.9c7.4,5.3,14.7,10.7,22.3,15.6c6.7,4.3,14.2,6.3,22.2,6c1.1,0,2.2,0.2,3.6,0.3
	c-1.4,3.8-4.6,4.2-7.9,5.1c0.8,0.5,1.4,0.9,1.9,1.2c7.5,3.6,15.3,5.7,23.6,5.3c2.5-0.1,5.1-0.9,7.4-1.9c2.8-1.3,3.7-4,2.8-6.5
	c-0.2-0.6-0.6-1.3-1.1-1.6c-0.7-0.3-1.6-0.3-2.3-0.3c-0.2,0-0.4,1.4-0.3,1.5c0.7,0.3,1.4,0.4,2.5,0.7c-0.2,0.4-0.5,1.5-1,1.6
	c-1,0.2-2.3,0.1-3.1-0.4c-0.6-0.4-1-1.8-0.9-2.7c0.4-2,2.7-3,4.7-2.3c2.7,0.9,4,3,4.6,5.6c1.1,4.6-1.6,10.6-6.2,13.8
	c-3.9,2.7-8.3,3.6-12.9,3.6c-3.3,0-6.5-0.4-9.8-0.5c11.5,2.5,22.7,2.3,33-4.5c-1.3,3.5-8.1,7.9-19.3,12.5c2.1,0.7,11,0.5,16.3-0.4
	c5.4-0.8,10.6-2.6,15.3-5.5c0.1,0.1,0.2,0.2,0.4,0.4c-1,1.3-1.8,2.8-2.9,4c-1.1,1.2-2.5,2.2-3.9,3.5c0.4,0,0.7,0.1,1,0
	c7.5-1.6,14.9-3.8,21.6-7.6c2.1-1.2,4.1-2.9,5.5-4.8c2.1-2.7,0.4-6.3-2.9-6.9c-2.1-0.4-4.2,1-4.5,2.9c-0.3,1.7,0.6,2.7,3,3.2
	c-1.4,1.6-3.7,1.5-5.2-0.2c-1.4-1.6-1.6-3.9-0.5-5.6c1.5-2.3,3.5-3.5,6.3-3.5c5.9,0.2,10.2,5.9,8.7,11.5c-1.3,4.7-4.4,8.2-8.4,10.8
	c-2.7,1.7-5.7,2.9-8.5,4.3c-0.7,0.3-1.3,0.6-1.9,1.1c11.7-2.1,23.5-3.9,32.4-13.6c-1.9,6.5-6.3,10.5-11.5,13.7
	c0.1,0.2,0.2,0.4,0.2,0.6c2.5-0.4,4.9-0.9,7.9-1.4c-1.5,1.8-2.7,3.5-4.2,4.8c-4.9,4.4-11,6.5-17.3,7.9c-5.5,1.3-11.1,1.6-16.8,1.5
	c6.8,1.6,13.7,2.3,20.6,2.4c7,0.1,13.9-0.5,20.5-2.8c0.1,0.1,0.2,0.3,0.2,0.4c-1.4,0.9-2.8,1.9-4.3,2.7c-5.7,2.8-11.8,4-18,4.7
	c-7.8,0.9-15.6,0.9-23.4-0.2c-0.3,0-0.5,0-0.9,0c4.7,2,18.7,3,29.2,1.9c9.8-1,19.2-3.5,28.2-7.9c-0.4,0.4-0.9,0.9-1.4,1.3
	c-7.5,6.5-16.4,10.2-25.9,12.1c-17.2,3.5-34.1,2.9-50.6-3.4c-0.2-0.1-0.5-0.2-0.8-0.1c3.1,2.1,6.6,3.5,10.2,4.6
	c8.6,2.7,17.5,3,26.4,2.4c8.1-0.5,16.3-1.4,24.4-1.8c3.3-0.2,6.8,0.4,10.1,1c2.6,0.4,4.9,1.7,6.7,3.6c2.2,2.3,2.7,5.4,1.2,8.2
	c-1.4,2.8-4.1,4.2-7,3.9c-2.8-0.4-4.1-2.3-3.3-5c0.6,0.5,1.1,1.4,1.8,1.5c0.7,0.1,1.7-0.2,2.3-0.7c1.5-1.3,1.4-3.8-0.1-5.3
	c-2.2-2-4.9-2.5-7.7-2.2c-3.6,0.4-7.1,1.1-10.6,2c-6.6,1.6-13.2,3.6-19.9,5.1c-5.8,1.3-11.6,1.3-17.5,0.1c-0.2,0-0.4,0-0.7,0.3
	c1.8,0.7,3.5,1.4,5.3,2c6.7,2.4,13.4,4.6,20.5,5.4c1.6,0.2,3.3,0.2,4.9-0.1c3.7-0.7,4.9-3.2,2.9-6.4c3.1,0.1,5.4,2.8,5,5.9
	c-0.3,2.7-1.6,4.7-3.6,6.4c-3.6,3.1-7.9,4.5-12.4,5.1c-4.6,0.6-9.1,0.4-13.7-0.4c-5.4-0.9-10.5-2.4-15.5-4.8
	c5.9,5.5,12.1,10.5,19.8,13.5c-0.1,0.1-0.1,0.3-0.2,0.4c-0.9-0.1-1.8-0.1-2.7-0.3c-7.9-1.7-15-5.4-21.7-9.7
	c-11.4-7.3-21.8-15.8-32.2-24.4c-8.8-7.3-17.5-14.7-26.2-22c-0.4-0.3-0.9-0.7-1.5-0.8c0.2,0.3,0.4,0.7,0.6,1
	c16.8,21.3,36.1,40,58.8,55c5.1,3.4,10.3,6.5,15.7,9.5c5.3,3,10.7,6,16.3,8.3c15.6,6.5,31.7,11.5,48.5,14
	c11.5,1.7,22.9,2.8,34.5,2.2c13.6-0.7,26.8-3.6,39.6-8.1c4.7-1.7,9.4-3.5,14.1-5.3c1.9-0.7,3.8-1.3,5.7-2.1
	c3.5-1.5,6.9-3.2,10.5-4.7c1.8-0.8,3.7-1.4,5.5-2.1c-2,2.2-4.1,4.4-6.1,6.6c-3.7,4.1-6.2,8.9-6.4,14.3c-0.1,3.6,0.8,7.4,1.8,10.9
	c1.1,4.4,2.9,8.6,4.2,13c0.9,3.3,1.1,6.7,0.5,10.1c-1.1,6-5,9.4-10.4,11.4c-5.7,2.1-11.7,2.3-17.7,2.6c-9.7,0.5-19-1.1-27.8-5.4
	c-2.1-1-4.5-1.8-6.8-2.3c-4-0.8-6.3,0.4-7.5,4.3c-1.1,3.7-1.8,7.6-2.3,11.4c-0.9,6.6-1.8,13.3-4.4,19.5c-0.1,0.1,0,0.3-0.1,0.7
	c2.8,0.4,5.6,0.8,8.4,1.2c12.6,1.7,25.3,3.4,37.9,5.2c1.4,0.2,2.4,0,3.5-1.1c6.9-6.7,18.9-6.9,26.3-0.6c0.3,0.2,0.6,0.5,0.9,0.8
	c3.7,3.3,5,3.4,9.4,1c1.8-1,3.5-2.1,5.2-3.1c5.5-3.3,11.5-4.6,17.7-5.7c10.9-1.8,21.9-3.5,33-3.6c10.2-0.1,20.5,0.2,30.7,0.2
	c7.6,0,15.2,0,22.8,0.1c0.9,0,2,0.4,2.7,1c1.6,1.2,3,2.7,4.8,4.4c-8,0.6-15.5,1.1-23.1,1.6c0,0.1,0,0.2,0,0.3
	c5.2,0.2,10.4,0.5,15.6,0.7c3.2,0.2,6.5,0.3,9.7,0.5c0.6,0.1,1.4,0.5,1.8,1.1c1.1,1.5,1.9,3.1,3.1,5c-15.3,0.3-30.1,0.6-45,0.9
	c0,0.1,0,0.2,0,0.3c6.5,0.5,13,1.1,19.5,1.6c8.7,0.7,17.5,1.4,26.2,2.1c0.4,0,0.9,0.1,1.3,0.2c0,1.3,0,2.6,0,3.9
	c-0.5,0-1.1-0.1-1.6,0c-4.7,0.3-9.5,0.8-14.2,1.1c-4.3,0.3-8.7,0.4-13.1,0.7c-1.4,0.1-2.8,0.3-4.2,0.4c0,0.2,0,0.4,0,0.6
	c0.9,0.1,1.8,0.3,2.7,0.3c5.5,0.4,10.9,0.8,16.4,1.2c4.7,0.3,9.4,0.7,14.1,1.1c0,1.1,0,2.2,0,3.3c-0.1,0.9-0.2,1.8-0.3,2.7
	c-0.2,2.9-0.4,5.7-0.6,8.6c-6.5-0.3-12.8-0.5-19-0.7c0,0.1,0,0.2,0,0.3c5.9,1.4,11.8,2.9,17.8,4.3c-0.1,0.6-0.2,0.9-0.2,1.2
	c0.2,1.8-0.8,1.9-2.2,1.6c-2.7-0.5-5.4-1-8.1-1.4c-3.3-0.5-6.6-0.7-9.9-1.2c-4.9-0.7-9.7-1.6-14.6-2.3c-4.1-0.6-8.3-1.2-12.5-1.8
	c-0.7-0.1-1.5,0-2.2,0c0,0.2,0,0.3,0,0.5c15.8,3.5,31.6,7,47.6,10.5c-0.6,1.7-1.1,3.1-1.7,4.7c-7.1-1-14.1-2-21-3
	c0,0.1-0.1,0.3-0.1,0.4c6.5,2.4,13.1,4.8,19.8,7.3c-1.5,2.6-2.9,5-4.2,7.5c-0.7,1.4-1.5,1.5-2.9,1c-10.5-3.3-20.9-6.6-31.4-9.8
	c-3.9-1.2-7.8-2.2-11.8-3.3c-1.8-0.5-3.7-1.1-5.5-1.6c0,0.1-0.1,0.2-0.1,0.4c16.2,6.5,32.4,13,49,19.7c-5.3,2.6-10,4.9-14.8,7.2
	c-0.5,0.2-1.3,0.1-1.9-0.1c-15.3-5.5-30.6-11-45.8-16.7c-12.6-4.7-25.1-9.9-36.9-16.4c-7.2-4-14.2-8.3-18.1-16.1
	c-1.6-3.3-4.6-4.3-8.2-3.5c-3.3,0.7-6.7,1.2-10,1.6c-4.8,0.5-8.8-1.2-11.8-5c-0.5-0.6-1.5-1.2-2.3-1.3c-9.5-1.3-19.1-2.6-28.6-3.8
	c-9.1-1.2-18.1-2.4-27.2-3.6c-1.5-0.2-2.5,0.1-3.6,1.2c-3.7,3.9-7.5,7.6-12.3,10.3c-0.9,0.5-1.6,1.1-2.7,1.9c1,0.4,1.5,0.7,2,0.8
	c3.4,1.1,6.8,2.2,10.2,3.3c5.1,1.6,10.2,3.3,15.4,4.8c4.4,1.2,8.9,2.3,13.4,3.2c3.9,0.8,7.9,1.5,11.9,2.2c3.6,0.6,7.2,1.3,10.8,1.8
	c18,2.9,36.1,4.6,54.2,5.6c1.8,0.1,3.7,0.2,6,0.3c-0.8,0.7-1.2,1.1-1.6,1.5c-3.7,2.9-7.3,5.8-11,8.6c-7.8,5.8-15.9,11.1-25,14.7
	c-10.8,4.3-21.6,4.9-32.3-0.3c-9.9-4.8-19.9-4.4-29.9-0.2c-7.5,3.2-14.2,7.8-20.9,12.4c-5.3,3.6-10.7,6.8-17.1,8
	c-7.7,1.4-14.9-0.4-21.9-3.4c-3.1-1.3-6.1-3-9.2-4.4c-4.8-2.1-7.9-1.5-11.6,2.1c-1.6,1.5-3,3.2-4.7,4.6c-5.1,4.3-10.7,5.2-16.8,2.2
	c-1.1-0.5-2.2-1.1-3.2-1.7c-3.9-2.2-7.7-1.8-11,0.9c-2.7,2.2-5.1,4.6-7.4,7.2c-4.1,4.6-7.6,5.5-13.2,2.7c-1.3-0.6-2.5-1.3-3.7-2.1
	c-2.4-1.5-4.7-3-7.1-4.5c-1.2-0.8-2.5-1.4-4.1-2.3c0.2,1,0.3,1.5,0.5,2c1.6,5.9,3.3,11.8,4.8,17.7c0.5,2-0.1,3.7-1.2,4.1
	c-1.2,0.5-2.2-0.3-3.2-2.4c-2.2-4.4-4.5-8.9-6.7-13.3c-0.2-0.4-0.5-0.8-0.7-1.2c-0.4,0.7-0.4,1.2-0.4,1.8c0,3.2,0.1,6.4,0.1,9.5
	c0,9.6-4.5,16.2-13.4,19.6c-5.9,2.3-11.8,4.2-17.8,6.3c-1.8,0-3.5,0-5.3,0c-1-0.6-0.8-1.2,0-1.8c0.7-0.5,1.4-0.9,2-1.5
	c3.5-3,7.4-5.7,10.5-9.1c6.1-6.6,7.4-17.5,3.3-25c-2.8,1.5-5.5,3.1-8.3,4.5c-4.6,2.4-9.3,4.7-14,6.9c-1.7,0.8-3.8,1-6.2,0.5
	c0.8-0.9,1.3-1.6,1.8-2.2c2.8-3,5.5-5.9,8.3-8.8c0.8-0.8,0.7-1.5,0.1-2.4c-10-15.4-21.7-29.6-33.4-43.7c-2.2-2.7-4.7-5.1-7.1-7.7
	c-5-5.6-9.9-11.2-14.9-16.7c-2.9-3.2-6-6.3-8.9-9.6c-3-3.3-5.8-6.6-8.7-10c-9-10.7-17.9-21.4-25.4-33.3c-2.2-3.4-4.4-5.1-8.5-5.5
	c-9.3-0.9-18.6-2.4-27.9-3.6c-0.7-0.1-1.8,0.1-2.3,0.6c-1.5,1.5-3.3,2.5-5.3,2.2c-3.7-0.6-7.1,0-10.5,1.1c-1.7,0.6-3.5,0.3-4.4-1.6
	c-0.8,0.3-1.5,0.6-2.3,0.9c-1.5,0.5-3,0.5-4.2-0.6c-0.9-0.8-1.6-1-2.7-0.8c-2,0.5-2.8-0.1-3-2.2c-0.1-1.4,0-2.8,0-4.3
	c-1.7-0.2-3.3-0.5-5-0.7c-26.9-3.5-53.9-7.1-80.8-10.6c-3.1-0.4-5.3-1.5-6.1-4.6C92.6,447,92.6,445.8,92.6,444.6z M323.5,388.7
	c-0.2-0.1-0.4-0.2-0.6-0.4c-0.4,0.5-0.7,1.2-1.1,1.6c-5.8,6.6-11.8,13.1-17.5,19.8c-4,4.7-8.4,8.7-13.6,11.9
	c-8.4,5.2-16.7,10.7-24.1,17.3c-0.9,0.8-1.7,1.5-2.9,2.5c3.9-0.1,7.2-0.4,10.5-0.4c9.5,0.2,18.8,1.9,28,4.3
	c8.6,2.2,17.1,4.8,25.6,7.1c5.4,1.4,10.9,2.3,16.6,1.9c5.1-0.4,8.9-2.7,11.5-7.1c3.7-6.2,4.4-12.8,3.1-19.8
	c-1.2-6.6-4.7-12.2-8-17.9c-3.1-5.3-7.4-8.5-13.6-9.5C330.7,399.1,325.6,395.7,323.5,388.7z M391.3,399c1.5,2.7,2.7,5.2,4.2,7.6
	c1.8,2.9,3.9,5.7,5.9,8.4c2.5,3.4,4.9,6.7,7.6,10c10,12.5,21.1,24,32.3,35.5c0.3,0.3,0.6,0.5,1.2,1c-0.1-0.6,0-0.9-0.1-1.2
	c-4-15.2-11.1-28.6-22.5-39.6c-2.4-2.3-4.9-4.4-7.5-6.5c-4.6-3.7-9.2-7.4-13.9-11c-2-1.6-4.3-2.8-6.4-4.3
	C391.9,398.9,391.7,399,391.3,399z"/>
</svg>
